<svg id="Layer_1" xmlns="http://www.w3.org/2000/svg" xmlns:xlink="http://www.w3.org/1999/xlink" viewBox="0 0 275 119"><style>.st0{clip-path:url(#SVGID_2_);} .st1{clip-path:url(#SVGID_4_);fill:#001722;} .st2{clip-path:url(#SVGID_4_);fill:#FFFFFF;} .st3{clip-path:url(#SVGID_4_);fill:#00AC4D;} .st4{clip-path:url(#SVGID_4_);fill:#DA2128;}</style><defs><path id="SVGID_1_" d="M-79-50h432.5v219H-79z"/></defs><clipPath id="SVGID_2_"><use xlink:href="#SVGID_1_" overflow="visible"/></clipPath><g class="st0"><defs><path id="SVGID_3_" d="M-79-50h432.5v219H-79z"/></defs><clipPath id="SVGID_4_"><use xlink:href="#SVGID_3_" overflow="visible"/></clipPath><path class="st1" d="M0 102h6.8v-7.8h3.8c6.1 0 7.1-3 7.1-5.9 0-5.1-3.1-6-10.5-6H0V102zm6.8-16.1h.8c2.3 0 3.4 0 3.4 2.4 0 1.8-.3 2.5-2.5 2.5H6.8v-4.9zm18 16.1h6.8v-8.5h1.3c1.9 0 2.6.5 2.6 1.6v3.1c0 1.3 0 3.1.8 3.7H43c-.8-.6-.7-2.4-.7-3.7v-3.5c0-1.6-1.5-2.8-3.9-3.1 3.6-.7 4.1-2.2 4.1-4.5 0-3.5-2.5-4.7-8.6-4.7h-9V102zm6.8-16.3h1.3c2.7 0 2.7.8 2.7 2.2 0 1.3 0 2.3-2.3 2.3h-1.7v-4.5zM50 96.6c0 3.5 3.3 5.7 8.7 5.7 5.4 0 8.7-2.2 8.7-5.7v-8.9c0-3.8-3.7-5.7-8.7-5.7-5 0-8.7 1.8-8.7 5.7v8.9zm6.8-9.3c0-.7 0-1.8 2-1.8s2 1.1 2 1.8V97c0 .5 0 1.8-2 1.8s-2-1.3-2-1.8v-9.7zm17.7-4.9h14.2v3.8h-7.4v3.9h6.6v3.7h-6.6v8.2h-6.8zm21.3 0h15v3.8h-8.3v3.9h7.3v3.7h-7.3v4.4h8.7v3.8H95.8zm29 12.9v1.4c0 1.1.4 2 2.3 2 1.6 0 2.4-.7 2.4-1.5 0-1.7-2.7-2.9-5.4-4.2-2.7-1.5-5.5-2.6-5.5-5.6 0-3.9 3.2-5.5 8.7-5.5 5.9 0 8.5 1.9 8.5 4.9v1.8h-6.3v-1.1c0-1-.2-2.2-2.1-2.2-1.4 0-2.3.6-2.3 1.5 0 1.2 2.9 2.5 5.6 3.9 2.5 1.5 5.6 2.4 5.6 6.4 0 1.9-2.1 5-9.2 5-6.7 0-8.8-2.8-8.8-4.9v-2.1h6.5zm25 0v1.4c0 1.1.4 2 2.3 2 1.5 0 2.4-.7 2.4-1.5 0-1.7-2.7-2.9-5.4-4.2-2.7-1.5-5.5-2.6-5.5-5.6 0-3.9 3.2-5.5 8.7-5.5 5.9 0 8.5 1.9 8.5 4.9v1.8h-6.3v-1.1c0-1-.2-2.2-2.1-2.2-1.4 0-2.3.6-2.3 1.5 0 1.2 2.9 2.5 5.6 3.9 2.5 1.5 5.6 2.4 5.6 6.4 0 1.9-2.1 5-9.2 5-6.7 0-8.8-2.8-8.8-4.9v-2.1h6.5zm18.5-12.9h6.8V102h-6.8zm13.9 14.2c0 3.5 3.3 5.7 8.7 5.7 5.4 0 8.7-2.2 8.7-5.7v-8.9c0-3.8-3.7-5.7-8.7-5.7-5.1 0-8.7 1.8-8.7 5.7v8.9zm6.8-9.3c0-.7 0-1.8 2-1.8s2 1.1 2 1.8V97c0 .5 0 1.8-2 1.8s-2-1.3-2-1.8v-9.7zm17.7-4.9h7.4l5.5 11.5h.1V82.4h6.5V102h-7.4l-5.4-12.1h-.1V102h-6.6zm26.6 19.6h6.8l.7-3.5h4.8l.6 3.5h7.1l-5.5-19.6h-9l-5.5 19.6zm9.9-16.6l1.7 9.6h-3.4l1.7-9.6zm17.1-3h6.8v15.8h7.4v3.8h-14.2z"/><path class="st2" d="M91.5 111.7H183v7.1H91.5z"/><path class="st3" d="M0 111.7h91.5v7.1H0z"/><path class="st4" d="M183 111.7h91.5v7.1H183z"/><path class="st1" d="M57.4 53.9l2.8-36.6 3.3 36.6h-6.1zM46 1.8l-4.4 70.9h14.3l.7-7.4h7.8l.6 7.4h15.6L74.1 1.8H46zm197.5 30.8c-10.4-6.2-13.1-8.8-13.2-14.5-.1-4.7 1-7.4 4.1-7.4 2.9.1 3.7 1.9 3.9 3.7v9.5h16.1v-7.1c0-8.9-5.8-16.6-19.7-16.6-17.2 0-20.4 12.9-20.2 20.4.2 9.7 2.2 12.3 4.6 14.9 2.4 2.5 8.5 6.7 12.8 8.7 5.8 2.7 7.4 6.4 7.4 10.1 0 4.1-.8 7.9-4.4 7.9-2 0-4.1-.8-4.1-3.4v-9h-15.9v6.4c0 10.2 7.8 17.9 19.9 17.9 12.2 0 20.9-6.1 21.2-20.4.1-14.6-8.1-18.5-12.5-21.1m15.1 40.1h15.9V1.8h-15.9v70.9zm-58.1-40.1c-10.4-6.2-13.1-8.8-13.2-14.6-.1-4.7 1-7.4 4.2-7.4 2.9.1 3.7 1.9 3.9 3.7v9.5h16.1v-7.1c0-8.9-5.8-16.6-19.7-16.6-17.2 0-20.4 13-20.2 20.4.2 9.7 2.2 12.4 4.6 14.9 2.4 2.5 8.5 6.7 12.8 8.7 5.8 2.7 7.4 6.3 7.4 10.1 0 4.1-.8 7.9-4.4 7.9-2 0-4.1-.8-4.1-3.4v-9H172v6.4c0 10.2 7.8 17.9 19.9 17.9 12.2 0 20.9-6.1 21.2-20.4 0-14.4-8.2-18.3-12.6-21m-48 26.3c0 1.9-1.7 3.2-3.9 3.2-1.9 0-3.9-.8-3.9-3.3v-57h-16.1v56.7c0 7.3 7.5 16 19.9 16 11.5 0 19.9-6.2 19.9-16V1.8h-15.9v57.1zM107.6 29L99.2 1.8H83.9v70.9H100V45.9l8 26.7h15.4V1.8h-15.7V29zM38.5 13.2V1.8H0v11.3h21.3L0 60.7v12h39.2V60.6H17.5l21-47.4z"/></g></svg>